<svg width="55" height="35" viewBox="0 0 55 35" fill="none" xmlns="http://www.w3.org/2000/svg">
<path d="M50.2555 4.8973H34.441V0.378876H50.2555V4.8973ZM54.0961 27.4894C53.1925 30.4264 49.5777 34.2671 42.5742 34.2671C35.5706 34.2671 29.9226 30.4264 29.9226 21.3896C29.9226 12.5786 35.1188 8.0602 42.3482 8.0602C49.3518 8.0602 53.6443 12.1268 54.548 18.0007C54.7739 19.1303 54.7739 20.7118 54.7739 22.971H36.7002C36.9261 30.2005 44.6075 30.4264 47.0926 27.4894H54.0961ZM36.7002 18.4526H47.9963C47.7704 15.0638 45.5111 13.4823 42.3482 13.4823C39.1853 13.4823 37.378 15.0638 36.7002 18.4526ZM15.2377 34.2671H0.552795V0.378876H16.3673C28.793 0.604797 29.0189 12.5786 22.4672 15.9674C30.1485 18.9044 30.3744 34.2671 15.2377 34.2671ZM7.33043 13.9342H15.4636C21.1116 13.9342 22.0153 7.15652 14.7858 7.15652H7.33043V13.9342ZM15.0118 20.7118H7.33043V27.4894H14.7858C21.7894 27.4894 21.3376 20.7118 15.0118 20.7118Z" fill="white"/>
</svg>
