<svg width="47" height="47" viewBox="0 0 47 47" fill="none" xmlns="http://www.w3.org/2000/svg">
<path d="M23.6211 4.27133C29.834 4.27133 30.6106 4.27132 33.1345 4.46548C39.5415 4.65963 42.4538 7.76604 42.6479 13.9789C42.8421 16.5028 42.8421 17.0853 42.8421 23.2981C42.8421 29.511 42.8421 30.2876 42.6479 32.6174C42.4538 38.8302 39.3474 41.9366 33.1345 42.1308C30.6106 42.3249 30.0281 42.3249 23.6211 42.3249C17.4083 42.3249 16.6317 42.3249 14.3019 42.1308C7.89489 41.9366 4.98263 38.8302 4.78847 32.6174C4.59432 30.0934 4.59432 29.511 4.59432 23.2981C4.59432 17.0853 4.59432 16.3087 4.78847 13.9789C4.98263 7.76604 8.08904 4.65963 14.3019 4.46548C16.6317 4.27132 17.4083 4.27133 23.6211 4.27133ZM23.6211 0C17.2141 0 16.4375 0 14.1077 0.194151C5.56508 0.582453 0.905451 5.24208 0.517149 13.7847C0.322998 16.1145 0.322998 16.8911 0.322998 23.2981C0.322998 29.7051 0.322998 30.4817 0.517149 32.8115C0.905451 41.3542 5.56508 46.0138 14.1077 46.4021C16.4375 46.5963 17.2141 46.5963 23.6211 46.5963C30.0281 46.5963 30.8047 46.5963 33.1345 46.4021C41.6772 46.0138 46.3368 41.3542 46.7251 32.8115C46.9193 30.4817 46.9193 29.7051 46.9193 23.2981C46.9193 16.8911 46.9193 16.1145 46.7251 13.7847C46.3368 5.24208 41.6772 0.582453 33.1345 0.194151C30.8047 0 30.0281 0 23.6211 0ZM23.6211 11.2608C17.02 11.2608 11.5838 16.697 11.5838 23.2981C11.5838 29.8993 17.02 35.3355 23.6211 35.3355C30.2223 35.3355 35.6585 29.8993 35.6585 23.2981C35.6585 16.697 30.2223 11.2608 23.6211 11.2608ZM23.6211 31.0642C19.3498 31.0642 15.8551 27.5695 15.8551 23.2981C15.8551 19.0268 19.3498 15.5321 23.6211 15.5321C27.8925 15.5321 31.3872 19.0268 31.3872 23.2981C31.3872 27.5695 27.8925 31.0642 23.6211 31.0642ZM36.0468 8.15435C34.4936 8.15435 33.3287 9.31925 33.3287 10.8725C33.3287 12.4257 34.4936 13.5906 36.0468 13.5906C37.6 13.5906 38.7649 12.4257 38.7649 10.8725C38.7649 9.31925 37.6 8.15435 36.0468 8.15435Z" fill="white"/>
</svg>
