<svg width="52" height="39" viewBox="0 0 52 39" fill="none" xmlns="http://www.w3.org/2000/svg">
<path fill-rule="evenodd" clip-rule="evenodd" d="M41.9811 5.21967L41.9946 5.22079L42.008 5.22183C43.7081 5.3526 44.6093 5.67528 45.1057 5.97105C45.513 6.21373 45.8722 6.56585 46.2149 7.34212C46.6022 8.2194 46.9329 9.57073 47.1421 11.6901C47.3491 13.7867 47.4162 16.3817 47.4162 19.6368C47.4162 22.8913 47.3491 25.5012 47.1418 27.6162C46.9321 29.7555 46.6002 31.1301 46.2093 32.0237C45.8616 32.8183 45.5048 33.1572 45.1269 33.3793C44.6624 33.6524 43.7929 33.9588 42.116 34.0448L42.107 34.0453L42.098 34.0458C34.6453 34.4598 17.9126 34.4607 10.4211 34.0484C8.74877 33.9155 7.85861 33.5958 7.36638 33.3025C6.95906 33.0598 6.59983 32.7077 6.25715 31.9315C5.86989 31.0542 5.53916 29.7028 5.32996 27.5835C5.123 25.4869 5.05591 22.8919 5.05591 19.6368C5.05591 16.3817 5.123 13.7867 5.32996 11.6901C5.53916 9.57073 5.86989 8.2194 6.25715 7.34212C6.59983 6.56585 6.95907 6.21373 7.36638 5.97105C7.86281 5.67528 8.76397 5.3526 10.464 5.22183L10.4775 5.22079L10.4909 5.21967C17.8817 4.60378 34.5904 4.60378 41.9811 5.21967ZM0.819885 19.6368C0.819885 32.7685 1.87889 37.6399 10.1391 38.2753C17.764 38.6989 34.7081 38.6989 42.3329 38.2753C50.5932 37.8517 51.6522 32.7685 51.6522 19.6368C51.6522 6.50511 50.5932 1.63369 42.3329 0.998281C34.7081 0.362878 17.764 0.362878 10.1391 0.998281C1.87889 1.63369 0.819885 6.50511 0.819885 19.6368ZM22.9472 26.5763C21.5389 27.2804 19.882 26.2564 19.882 24.6819V14.5918C19.882 13.0173 21.5389 11.9933 22.9472 12.6974L33.0373 17.7425C34.5983 18.523 34.5984 20.7507 33.0373 21.5313L22.9472 26.5763Z" fill="white"/>
</svg>
